<svg width="147" height="147" viewBox="0 0 147 147" fill="none" xmlns="http://www.w3.org/2000/svg">
<g clip-path="url(#clip0_45_75)">
<path d="M24.5 82.8406L39.9656 67.375L24.5 51.9094L9.03438 67.375L24.5 82.8406ZM107.188 79.625L122.5 55.125L137.812 79.625H107.188ZM73.5 73.5C68.3958 73.5 64.0573 71.7135 60.4844 68.1406C56.9115 64.5677 55.125 60.2292 55.125 55.125C55.125 49.9187 56.9115 45.5547 60.4844 42.0328C64.0573 38.5109 68.3958 36.75 73.5 36.75C78.7063 36.75 83.0703 38.5109 86.5922 42.0328C90.1141 45.5547 91.875 49.9187 91.875 55.125C91.875 60.2292 90.1141 64.5677 86.5922 68.1406C83.0703 71.7135 78.7063 73.5 73.5 73.5ZM73.5 49C71.7646 49 70.3099 49.587 69.1359 50.7609C67.962 51.9349 67.375 53.3896 67.375 55.125C67.375 56.8604 67.962 58.3151 69.1359 59.4891C70.3099 60.663 71.7646 61.25 73.5 61.25C75.2354 61.25 76.6901 60.663 77.8641 59.4891C79.038 58.3151 79.625 56.8604 79.625 55.125C79.625 53.3896 79.038 51.9349 77.8641 50.7609C76.6901 49.587 75.2354 49 73.5 49ZM0 110.25V100.603C0 96.1115 2.27135 92.513 6.81406 89.8078C11.3568 87.1026 17.2521 85.75 24.5 85.75C25.8271 85.75 27.1031 85.7755 28.3281 85.8266C29.5531 85.8776 30.7271 86.0052 31.85 86.2094C30.4208 88.251 29.349 90.4458 28.6344 92.7938C27.9198 95.1417 27.5625 97.6427 27.5625 100.297V110.25H0ZM36.75 110.25V100.297C36.75 93.6615 40.1443 88.3021 46.9328 84.2188C53.7214 80.1354 62.5771 78.0938 73.5 78.0938C84.525 78.0938 93.4062 80.1354 100.144 84.2188C106.881 88.3021 110.25 93.6615 110.25 100.297V110.25H36.75ZM122.5 85.75C129.85 85.75 135.771 87.1026 140.262 89.8078C144.754 92.513 147 96.1115 147 100.603V110.25H119.438V100.297C119.438 97.6427 119.106 95.1417 118.442 92.7938C117.779 90.4458 116.783 88.251 115.456 86.2094C116.579 86.0052 117.728 85.8776 118.902 85.8266C120.076 85.7755 121.275 85.75 122.5 85.75ZM73.5 90.3438C67.6813 90.3438 62.475 91.1094 57.8813 92.6406C53.2875 94.1719 50.5823 95.9583 49.7656 98H97.3875C96.4688 95.9583 93.738 94.1719 89.1953 92.6406C84.6526 91.1094 79.4208 90.3438 73.5 90.3438Z" fill="#A13CCC"/>
</g>
<defs>
<clipPath id="clip0_45_75">
<rect width="147" height="147" fill="white"/>
</clipPath>
</defs>
</svg>
